<?xml version="1.0" encoding="iso-8859-1"?>
<!-- Uploaded to: SVG Repo, www.svgrepo.com, Generator: SVG Repo Mixer Tools -->
<svg fill="#000000" height="800px" width="800px" version="1.1" id="Capa_1" xmlns="http://www.w3.org/2000/svg" xmlns:xlink="http://www.w3.org/1999/xlink" 
	 viewBox="0 0 489.915 489.915" xml:space="preserve">
<g>
	<g>
		<g>
			<path d="M423.1,232.67c9.5,14.3,1.9,21.6,2.7,28.9c21.6,14.7,22,20,17.9,34.5c-6.4,12.6-3.9,31.5-3.1,35.8c0,0,2.9,14,0.8,19.8
				h19.4c32.1-3.7,30.7-29.6,27.6-38.5C476.8,281.27,453.8,253.27,423.1,232.67z"/>
			<path d="M192.9,197.27c-102.7,0-186.6,68.4-192.9,154.8h385.7C379.6,265.77,295.2,197.27,192.9,197.27z"/>
			<path d="M192.9,176.67c113.5,0,206.9,77.4,213.5,174.6c0,0,19.1,3.4,14.4-14.8c-1.2-6.2-1.6-12.1-1.6-18.3
				c0-10.1,2.4-24.2,6.2-31.9c-12.6-9.5-16.3-11.3-18.7-19.4c-0.8-2.3-0.9-11.1,1.2-20.6c0.6-2.8-7.8-7.8-8.6-8.2
				c-19.5-10.5-18.9-25.5-18.3-29.2l-24.1-8.9c-3.9-1.6-7-4.7-8.6-8.9c0,0-26.4-7.3-25.3-20.6c-8.2-1.9-15.9-3.5-24.1-4.3
				c-7-0.8-12.4-6.2-12.8-13.2c-12.1,0-24.1,0.4-35.8,1.2c-4.3,0.4-14.6-3.2-15.2-15.6c-9-2.5-21.4,1.9-28,6.6
				c-6.2,4.3-14.4,2.7-19.1-3.1c-7.7-4.2-33.1,16.7-33.1,16.7c-5.4,3.1-12.1,2.7-17.1-1.6c-2.7-2.7-15.1-3.6-28,12.1
				c-4.3,5.1-11.7,6.6-17.5,3.5c-4.9,11.8-46.5,47-57.2,46.7l0,0c0,5.1,0.4,10.5,1.6,15.9C75.1,199.67,131.1,176.67,192.9,176.67z"
				/>
		</g>
	</g>
</g>
</svg>